<?xml version="1.0" encoding="UTF-8"?>
<svg id="_レイヤー_1" data-name="レイヤー_1" xmlns="http://www.w3.org/2000/svg" width="400" height="194" version="1.1" viewBox="0 0 400 194">
  <!-- Generator: Adobe Illustrator 30.2.1, SVG Export Plug-In . SVG Version: 2.1.1 Build 1)  -->
  <defs>
    <style>
      .st0 {
        fill: #d7000f;
      }

      .st1 {
        fill: #231815;
      }

      .st2 {
        fill: #009140;
      }
    </style>
  </defs>
  <g id="_レイヤー_2" data-name="レイヤー_2">
    <g id="_レイヤー_1-2" data-name="レイヤー_1-2">
      <path class="st1" d="M118.7,34.2c-4.4-2.2-7.8-5.9-9.6-10.4l7.3-4.4-1.5-2.6h0l-6.8,4c-.7-2.2-1.2-4.4-1.4-6.7h6.6l.2-3h-24.2l-.2,2.9h6.8c-3.5,2.5-7.3,4.7-11.2,6.5h0l1.2,2.6h.2c3.7-1.7,7.3-3.8,10.7-6.2.4.6.8,1.2,1.2,1.9-4.1,3.2-8.6,6-13.3,8.3h0l1.2,2.6h.2c4.8-2.2,9.3-4.9,13.5-8.1.3.7.6,1.4.8,2.1-5.1,4.2-10.7,7.6-16.8,10h0l1,2.8v.2h.2c5.9-2.4,11.4-5.6,16.4-9.6v1.4c0,2.1-.5,4.1-1.3,6h-4l-.2,2.9,6.3.2c1-1.4,1.7-3,2-4.6.3-1.6.5-3.3.5-4.9,0-2.4-.7-4.8-1.7-6.9-.9-2.2-2-4.2-3.3-6.2l1.2-1h2.7c.2,4.7,1.6,9.3,4,13.3,2.2,4.3,5.7,7.7,10,9.8h.2l1.2-2.8v-.2h-.2ZM87,7.5h28.5l-.2,4.7h3.3v-7.4l-15.8-.2.2-4-3.3-.2-.2,4.4-15.6-.2-.2,8.1,3.2.2.2-5.4ZM102.8.8h0ZM99.9.8"/>
      <path class="st1" d="M144.9,22.9c0-4.8.3-10.6.8-17.3h0l-3.1-.3h-.2v.2c-.5,6.8-.8,12.5-.8,17.2-.2,3.9.2,7.9,1,11.7h0l3-1h0c-.7-3.4-1-6.8-.9-10.3M173.4,28.7c-2.3-2.4-5-4.4-8.1-5.6v-9.1h0c2.3.1,4.6.1,6.9,0h0v-3.1h-7.2v-6.2h-3.1c-.1,2.3-.1,4.5,0,6.8h-10.2v3.1h10.7v7.6c-.6,0-1.2,0-1.8,0-2,0-3.9.5-5.6,1.5-1.9.8-3.1,2.6-3.3,4.6,0,1.9.9,3.6,2.5,4.5,1.5,1,3.2,1.5,5,1.5,1.6,0,3.2-.5,4.5-1.5,1.2-1,1.8-2.5,1.8-4v-2c2.1,1.1,3.9,2.4,5.6,4h0l2.2-1.8h0v-.3ZM151.7,14.2h0ZM162.2,4.6,162.4,28.8c0,1.6-.9,2.3-2.9,2.4-1,0-2-.2-2.9-.7-.9-.3-1.5-1.1-1.5-2,0-1.2.8-2.2,1.9-2.5,1.1-.5,2.3-.7,3.5-.7.7,0,1.3.1,1.9.3v3.2"/>
      <polygon class="st1" points="197.2 33.5 189.2 25.5 187 27.7 186.8 27.9 195 36 197.2 33.8 197.3 33.6 197.2 33.5"/>
      <path class="st1" d="M247.4,33.3v-8.9h8.5l.2-3-9-.2v-8.1h9.1v-3.1h-9.5V.9l-2.2-.2-.2,9.5h-5.4c.5-1.4,1.1-3.2,1.8-5.5v-.4l-2.8-.9h-.2v.2c-1.2,4.5-2.8,8.9-4.7,13.2h0l2.8,1.2h0c.6-1.4,1.3-3,2-5h6.7l-.2,8.3-9-.2-.2,3.1,9.4.2-.2,8.9h0l-11-.2v3l24.6.2h0s.2,0,.2,0v-2.8l-10.6-.2ZM235.2,24.2,233.8,13.9v-.2l-2.5-5.6-2.7,1.1h0V.6l-3.3-.2v37l3.2.2v-.2h0V9.5l2.4,5.6,2.9-1.2h0ZM225.4,37.2h0ZM223.2,9.7h-2.8l-.9,11.2,3,.4v-.4l.8-11h-.2v-.2ZM219.8,20.6"/>
      <path class="st1" d="M310.5,34.1l-8.7-.2v-5.3l11.6-3.7-1-2.8v-.2l-10.5,3.5v-5.3l-3.1-.2-.2,14.3c0,.8.4,1.6,1,2.1.6.6,1.4.9,2.3.8h10.1l1.6-1.4h0v-4h-3v2.3ZM301.7,20.2h0ZM310.8,31.4,310.5,12.1v2.7h0l-8.7-.2h0l.2-4.6,11.5-4.3-1-2.8h0l-10.5,4V1h-3.1v13.7c0,.8.3,1.6.8,2.2.5.6,1.3,1,2.1.9h10.5l1.6-1.5h.2v-4.3h-3.6ZM278.2,37.5l3,.2v-8.1h10.2v4.6h-2.6l-.2,2.9h4.4l1.5-1.4h0V14.2h-16.1l-.2,23.3ZM281.5,16.9h10.3v3.3h-10.5l.2-3.3ZM281.5,23.3h10.3v3.2h-10.5l.2-3.2ZM278.5,37.3h0ZM291.7,2.7l-2.6,1.4h0l2.2,3.5-8.1.7,4-6.9L284.2,0h0l-5.4,9h-1.9l.2,2.9v.2l16.1-1.5.7,1.5h0l2.6-1.5h0l-4.8-7.9Z"/>
      <path class="st1" d="M337.3,26.5c-1.1-1.1-2.5-1.7-4-1.6-3.1,0-5.6,2.4-5.6,5.4,0,1.5.5,2.9,1.6,4,1.1,1.1,2.5,1.7,4,1.6h0c1.5,0,3-.5,4-1.6,1.1-1.1,1.7-2.5,1.6-4,0-1.5-.5-3-1.6-4M336.5,30.3c0,.8-.3,1.6-.9,2.1-.5.6-1.3,1-2.1.9-1.5-.1-2.8-1.4-2.9-2.9,0-.8.2-1.6.7-2.2.6-.6,1.4-.9,2.2-.9.8,0,1.6.3,2.1.9.6.6.9,1.4.9,2.2"/>
      <rect class="st0" y="58.9" width="400" height="21.7"/>
      <rect class="st2" y="172.3" width="400" height="21.7"/>
      <path class="st1" d="M11.5,113.1c3.3-1.3,6.9-1.9,10.5-1.9,4.6-.2,5.4-.6,7.8-.6s20.4,2.3,25.8,2.6c4.1.7,8.1,1.6,12.1,2.7,2,.4,4.1.6,6.2.6,1,0,5.4-.4,3.1,2.7-2.1,2.6-4.5,5-7.3,6.9-1.1.7-1,1.8-8.5-.7-6.1-2.1-12.5-2.9-18.9-2.5-5-.3-9.9.3-14.7,1.7-2.6,1.4-5.6,2-8.6,1.7-5,0-6.9.6-8.3-.2-.6-.3-1.4-1.1-2.2-1.7s-1-1.2-.4-3,.8-4.4,1.1-5.2c.3-1.3,1.1-2.5,2.3-3.3"/>
      <path class="st1" d="M105.2,90.1c1.5-.7,3.3-1.5,6.9,1.8,1.9,1.7,2.4.9,3.4.9,4.1-.1,8.1.2,12.1.9,1.2.4,2.4.5,3.6.6,2.2,0,9-.5,9.6,4,.6,4-1.3,5.5-4.4,6.5s-5.4,1.1-5.8,3.2,3.8,4.7,5.4,6.2c3.4,3.4,7.5,6,12.1,7.6,2.6.5,5.2.9,7.8,1.2,1.8,0,5.4,1.5,1.2,3.3-4.2,1.9-6.3,3.3-7.4,4-1.9.9-4.2.9-6.1,0-2.7-2.1-5.1-4.4-7.3-7-2.1-2.5-6.9-7.3-11.5-7.2-2.8,0-4,.4-4.6,1.2s-.7,1.2.8,1.6c1.5.4,5.6,2.3,5.7,4s0,2.7,1.2,3.1c1.4.6,3,1,4.5,1.1,2.3,0,4,1,4,2.8s0,2.7-2.3,2.9-5.9,0-7.2,0-1.7.8-1.9,2.6-.3,3-.5,4,0,15.5,0,18c0,1.6-.2,3.2-.4,4.8,0,1,0,2.7-.8,2.9-1.3,0-2.6-.5-3.5-1.5-.3-1.2-.5-2.5-.4-3.7.1-1.4.3-2.8.6-4.2.4-2.6.4-5.2,0-7.7-.3-.9-.3-1.8,0-2.7.4-1,0-1.2,0-2.7-.1-1.2-.4-2.4-.8-3.5-.3-1.3-.4-2.7-.4-4,0-1.1-.6-1.2-1-1.3-1.8-.5-3.7-.5-5.6,0-1.6.6-3.4.5-5-.3-1.3-.6-1.9-2.1-1.4-3.4,0-.2.2-.5.4-.6.5-.6.7-1.4.4-2.1-.4-.5-2.3,0-3.1.4-2.1,1.2-4.6,1.5-7,.8-2-.6-3.7-1.9-4.8-3.7-1.8-3.3-1.8-3.7,1.7-4,4.3,0,6.5,0,8.5-1.6,1.8-1.6,3.8-2.9,6-4,2.6-1.5,2.6-2.5,2.6-3.1s-.6-1.5-1.8-2.7-2.2-1.6-3.8-.4-5.9,3.7-6.8,4.4c-2.1.9-4.5,1-6.7.3-1.7-.5-2.9-2.6-4-4s-3.1-3.6.8-3.3c3.9.2,7.7-1.3,10.4-4,1.4-1.2,2.7-2.5,3.7-4,.3-1.6.3-3.3,0-5-.3-1.7.7-3.4,2.4-4M107.4,136.9c-.7.3-2.2.5-4,1.3-1.8.8-3.3,2.1-4.3,3.8-.3,1.1-.3,2.2,0,3.2,0,.9,3.2,2.9,4,2.9.8.1,1.6.1,2.5,0,.7-.2.6,0,1.4-1.4.9-1.1,1.9-2.2,3-3.2.9-1.2,1.2-2.6,1-4,0-2.1,0-2.6-.9-3s-1.9.4-2.4.6M118.1,102.1c.6.4,2.3,1.8,3,1.8s1.6-.9,2.2-1.5.6-1.4-.4-1.9c-1.7-.3-3.4-.3-5,0-1,.2-.3,1.2.2,1.6M115.8,125c.9-.3,2.1-2.7,2.5-5.2s-.7-1.9-2.7-.9c-2.6,1.5-4.8,3.5-6.7,5.8-1,1.3,0,1.7.9,1.5s4.9-.5,6-.9M131.9,136.5c-.8.8.2,2.1,1.1,3.8,1.2,2.9,3,5.5,5.2,7.7,2.6,1.7,5.9,1.5,8.3-.5,1.6-.7,2.5-2.3,2.3-4,0-2.5-3.3-3.4-4.8-3.6s-8.1-2.8-9.3-3.1-2.1-1-2.9-.2"/>
      <path class="st1" d="M178.4,98.1c7.2-.6,14.4-.6,21.6,0,4.2.6,8.4,1.5,12.5,2.5,1.8,0,3.5.5,5,1.5,1.3,1,1.4,2,.4,4s-1.5,3.7-5.5,3.3c-2.3-.3-4.6-.6-6.9-.6-.8,0-1.6.4-2.1,1-.6.5-1.9,0-3.3.2s-1.9,1.6-1,2.9c1.6,2.3,3.5,4.5,5.5,6.6,1.5,1.4,1.8,3.6.9,5.4-.8,1.8-2.8,4.4,1.2,5.4,2.8.8,5.5,1.9,8.1,3.1,2.9,1.3,6,2.1,9.2,2.2,3.6-.4,6.2.4,4.5,3.5-1.3,2.6-3.3,4.7-5.8,6.1-1.7,1.2-4,1.2-5.8,0-2.9-1.6-6.2-2.4-9.6-2.4-1.6,0-4.6.5-6.3-.5-2.1-.7-4.3-.9-6.4-.6-2.6.1-5.3.4-7.9.8h-8.1c-2.8.2-5.5.9-8.1,2.2-2.1,1.3-3.6,2.4-4.4.8-1.4-2.5-1.4-5.6,0-8.1,2.8-3.8,7.3-6,12.1-6,4.4-.1,8.7-1.2,12.7-3,1.7-.8,3.1-2,4.3-3.4,1.3-1.7,1.6-3.2,0-4.8s-3.1-1.4-3.4-6.9c-.2-5.5-4.9-5.2-8.1-4.6-3.1.6-8.1,2.2-10.6.3s-3.3-2.9-1.2-7.1c1.3-2.2,3.6-3.7,6.1-4"/>
      <path class="st1" d="M254.6,93.4c2.4.1,4.8,1,6.8,2.3,2.8,1.7,7,4.4,7,8.1s-2,3.4-3.1,4.7c-1.1.9-1.3,2.5-.4,3.6.1.1.3.3.4.4,1.6,1.2,3.2,2.2,4.5,3,1.4.9,2.6,2,3.4,3.4.6,1.1,1.5,1,2.7.5.7-.2,1.3-.6,1.8-1.2.6-.6,1.3-1.2,0-2.3-1.6-1.3-2.5-3.2-2.6-5.2,0-2.2-.2-2.4-1.5-3.4s-2.5-2.6-1.6-6.5c.8-3,2.8-5.5,5.4-7.1,1.5-1,5.5-2.3,7.1,0s1,5.4,2.5,6.3,2.5,0,4,.3,8.6-.9,10,1c1.3,1.9,2.7,4.4,0,4.6s-7.3-.4-9,1.4c-1.7,1.8-1.7,1.7-1.7,4s-.5,5,1,6.2,5.5,5.4,7.3,6.7c1.2,1,2.7,1.6,4.3,1.7,3.1,0,6.1.9,8.8,2.5,1.9,1.8,3.3,3.5-.6,4.4-3.8.9-7.7.9-11.4,0-3.1-3.9-6.6-7.4-10.5-10.4-3.4-1.7-4-2.6-6.5-1.7s-3.2,1.2-2.9,1.9.5.6,1.5,1.9c.7.9,1.6,1.8,2.5,2.6.7.6,1.7.5,3,.5,2.5-.4,4.9,1.2,5.4,3.7.6.9,1.4,1.7,2.4,2.2,1.2.8,2,1.5,1.7,5s-1.4,5.7-1.5,7.8c-.1,2.2-.8,4.4-1.9,6.3-.6.8-1.4,1.7-2.8.4-1.4-1.3-2.7-2.3-3.6-3.3s-2-2.5.4-3.7,3.3-1.1,3.3-4c0-2.9,0-5.4-1.8-5.2s-4,2.5-5.3,4.2-5.2,4.9-6.9,6.5-2.6,2.4-5.1,1.1c-1.2-.7-2.5-1.2-3.8-1.4-1.5-.4-2.3-2.1.3-2.1,1.6.3,3.2-.4,4-1.8.9-1,3.1-3.3,4-4.4s1.3-1.7.4-3-.5-1.1-1-2.1-1-.8-.7-2.9c.1-1.7.1-3.3,0-5,0-.9,0-1.2-2.1-2.2s-2.5-1.6-4-1.1c-1.8.4-3.4,1.4-4.6,2.7-1.7,1.7-1.9,1.2-1.3,2.9.8,2.1,1.2,4.4,1,6.6-.2,4.7-.8,9.3-1.7,14-.7,2.4-2.2,5.2-4,5.3-1.8,0-3.5-1.8-3.5-5.4-.3-2.5.2-5,1.4-7.3,1-1.3,2.8-3,1.5-5s-2.2-2.4-4-.4c-1.3,1.7-2.7,3.3-4.4,4.6-1.6.8-3.4.8-5,0-1.3-1-2.4-2.3-3.3-3.7-1-1.5-2.1-3.2.9-3.3,3.1.2,6.1-.7,8.6-2.4,2.1-1.5,3.9-3.4,5.2-5.6.8-1.4,2.4-2.1,4-1.9q1.9,0,3.1-1c.9-.8,1.8-1.5,2.7-2.2.8-.6,1.7-1.8,0-2.3-1.7-.8-3.7-.7-5.3.3-2.4,1.4-6.8,3.8-8.1,4.8s-5.2,1.8-6.7.2c-2-1.5-2.5-4.3-1.1-6.4,1.5-1.8,4-2.4,6.1-1.2,1.6.6,3.3.6,4.9,0,1.2-.3,1.3-1.6,1.3-3.5,0-2.8-1.4-3.6-3.5-6.1-2.1-2.5-3.6-4.6-3.3-6.7s.8-6.1,5.1-6.3M283.4,111.1c.5.6,1.1.4,1.7-.2s0-1.3-.6-1.5c-.5-.1-1,0-1.5.2-.6.4,0,.8.4,1.5"/>
      <path class="st1" d="M347.9,90.3c2.4.7,4.6,1.8,6.6,3.3,2,1.3,2.7,2.2,3,4,.1,1.7.6,3.4,1.5,5,1,1.9,1.4,1.3,3.7,1.2,2.2,0,4.3,0,6.5.3,3,0,5.9.7,8.5,2.1,3.1,2.1,0,4.6-1,5.7s-4.9,1.2-7.4,1.2-5.4-.5-6.9-.6c-1.8,0-3.6.2-5.4.6-2,.3-1.5.5-.6,2.3,1,1.9,2.4,3.7,4,5.1,1,1.1,2.5,1.6,4,1.5,2.6,0,6,1.9,9.8,2.5,3.7.7,6.3,1.8,8.7,2,2,0,4-.6,5.7-1.7,1-.4,2.5-1.1,3.4,0s-1.2,3.6-2.7,4.8c-1.2,1.1-2.8,1.7-4.4,1.8-1.7,0-3.3-.6-4.7-.6s-3.1.4-5.3.3c-2.2,0-3.3-.7-5-.9-1.9-.1-3.9-.1-5.8,0-1.9,0-2,1.3-1.9,2.7s-.3,2.2,2,2.1c3.1,0,6.2.1,9.3.6,2.3.4,4.3,1.5,6,3.2,1.5,1.6.4,3.5-.2,5.5s-1.5,2.3-1.7,4.4c-.3,2-.9,3.9-2,5.6-.6,1.9-2.6,2.9-4.5,2.3-1.6,0-6-.6-8.1-1-1.9-.4-3.9-.2-5.7.6-1.9,1-4,1.4-6.1,1.3-2.3.3-4.6-.4-6.3-2-1.5-2.3-2.4-5-2.5-7.8-.7-2.5-1.6-5-2.7-7.3-.8-2.3-.5-2.7,2-3.8,2.7-1.2,5.7-1.7,8.7-1.4,4.6,0,3.1-1.7,2.7-4.6-.8-2.8-2-5.5-3.5-8.1-1.1-2.5-.5-3.3.3-4s1.7-1.7,3-3.2,0-1.9-1.7-2.1c-1.2-.2-2.5-.2-3.7,0-2.1,0-2.3.5-2.9,1.7-.5,1.5-.7,3.2-.5,4.8-.1,1.6-.7,3.2-1.7,4.5-1.2,1.7-2.3,3.4-3.2,5.2-1.4,2.3-3.6,4-6.1,4.9-2.4,1.3-4.4,3.1-6,5.2-1.2,1.2-1.7,4.7-4,6.5-2.2,1.4-5,1.3-7.1-.3-1.7-1.2-1.9-2.5-.2-4,1.8-1,3.5-2.2,5-3.5,2.5-2.8,5.3-5.3,8.3-7.4,3.9-2.7,6.5-6.9,7.1-11.7.5-4-1.5-3.7-4-4.6s-2.4-3.6-2.3-5.4c0-1.6,1-3.1,2.5-3.7,1.2-.1,2.4-.3,3.6-.6.9-.5,1.9-.7,2.9-.7,1.5,0,4,0,5.8-.4s2.5-.5,1.2-2.1c-1.2-1.7-2-3.6-2.4-5.6-.8-1.7-.5-3.6.6-5,.9-1.2,1.7-1.5,4-1M348.5,144.7c-2,1.1-.6,2.6,2.1,2.7,1.7,0,2.3,1.3,4.6,1.2s4.4,0,6.2,0c2.1,0,4.2,0,6.3-.2,1.2-.2,1.5-1.2,1.7-2.4s0-2.3-1.6-2.2-6.9,0-8.3,0c-3.7-.3-7.4,0-11,1"/>
    </g>
  </g>
</svg>